<svg width="38" height="29" viewBox="0 0 38 29" fill="none" xmlns="http://www.w3.org/2000/svg">
<path d="M24.5692 5.47317V10.4754L23.9196 10.6515C21.3153 11.3562 18.9847 12.8455 17.2375 14.9215C15.4904 16.9975 14.4094 19.5618 14.1383 22.2738C15.1612 19.4626 16.9824 17.0194 19.3734 15.2507C21.7644 13.482 24.6187 12.4664 27.5784 12.3314L29.3957 5.47408L24.5692 5.47317ZM29.7813 10.8399L28.9222 14.0835H28.2524C25.5538 14.0824 22.9189 14.9125 20.6985 16.4631C18.4781 18.0137 16.7775 20.2114 15.8232 22.7634C17.5291 20.3112 19.9141 18.4237 22.6782 17.3383C25.4423 16.2529 28.4622 16.018 31.358 16.6631L34.6824 10.8414L29.7813 10.8399ZM15.9526 3.7531C16.2244 3.75316 16.49 3.83469 16.716 3.98739C16.9419 4.14009 17.118 4.35709 17.222 4.61096C17.3259 4.86483 17.3531 5.14417 17.3 5.41365C17.247 5.68313 17.1161 5.93066 16.9239 6.12493C16.7317 6.3192 16.4868 6.45149 16.2203 6.50507C15.9537 6.55866 15.6775 6.53113 15.4264 6.42596C15.1753 6.3208 14.9607 6.14273 14.8097 5.91426C14.6587 5.68579 14.5782 5.41719 14.5782 5.14242C14.5782 4.95995 14.6137 4.77926 14.6828 4.61068C14.7519 4.4421 14.8531 4.28893 14.9807 4.15992C15.1084 4.0309 15.2599 3.92857 15.4267 3.85877C15.5934 3.78897 15.7721 3.75306 15.9526 3.7531ZM0.26456 12.5699C0.937706 11.3911 1.9059 10.4123 3.07184 9.73172C4.23777 9.05116 5.56035 8.69289 6.90664 8.69292H12.4107V2.8088H7.67275C6.49634 2.80883 5.33571 3.08247 4.28063 3.60854C3.22556 4.13461 2.30432 4.89901 1.58817 5.84262C0.872022 6.78622 0.380167 7.88374 0.150651 9.05027C-0.0788651 10.2168 -0.0398906 11.4211 0.26456 12.5699ZM12.3234 27.2317V23.6287C12.3246 20.3993 13.3425 17.2542 15.2298 14.6487C17.117 12.0433 19.7756 10.1129 22.8204 9.13703V1.76831H14.1598C13.6959 1.76831 13.251 1.58201 12.923 1.25038C12.595 0.918762 12.4107 0.468985 12.4107 0L24.5692 0V3.70486H31.6732L30.2504 9.07311H37.703L32.2028 18.7046L31.559 18.53C28.7333 17.7637 25.7365 17.9615 23.0334 19.0929C20.3304 20.2242 18.0721 22.2258 16.609 24.7871V24.7904L15.2151 27.2326H37.703V29.0009H0.26456V27.2317H12.3234Z" fill="#304854"/>
</svg>
